<svg xmlns="http://www.w3.org/2000/svg" viewBox="0 0 200 200" fill="none">
  <defs>
    <linearGradient id="g1" x1="0%" y1="0%" x2="100%" y2="100%">
      <stop offset="0%" stop-color="#1a3a4a"/>
      <stop offset="50%" stop-color="#1e4d5e"/>
      <stop offset="100%" stop-color="#153545"/>
    </linearGradient>
    <linearGradient id="g2" x1="100%" y1="0%" x2="0%" y2="100%">
      <stop offset="0%" stop-color="#1e5060"/>
      <stop offset="100%" stop-color="#112e3c"/>
    </linearGradient>
  </defs>
  <!-- Outer hexagonal ribbon shape -->
  <path d="M100 10 L175 48 L175 152 L100 190 L25 152 L25 48 Z" fill="url(#g1)" stroke="none"/>
  <!-- Inner cutout to create the ribbon/ring effect -->
  <path d="M100 50 L145 75 L145 125 L100 150 L55 125 L55 75 Z" fill="white" stroke="none"/>
  <!-- Ribbon twist overlays for 3D effect -->
  <path d="M100 10 L130 28 L100 50 L70 28 Z" fill="url(#g2)" opacity="0.7"/>
  <path d="M175 48 L175 88 L145 75 L145 48 Z" fill="#1a4555" opacity="0.5"/>
  <path d="M175 112 L175 152 L145 125 L145 112 Z" fill="#0f2a36" opacity="0.6"/>
  <path d="M100 150 L130 172 L100 190 L70 172 Z" fill="url(#g2)" opacity="0.7"/>
  <path d="M25 112 L25 152 L55 125 L55 112 Z" fill="#1a4555" opacity="0.5"/>
  <path d="M25 48 L25 88 L55 75 L55 48 Z" fill="#0f2a36" opacity="0.6"/>
</svg>
